<?xml version="1.0" encoding="UTF-8"?><svg id="a" xmlns="http://www.w3.org/2000/svg" viewBox="0 0 148.74 139.59"><path d="M112.69,90.71h-6.08c0-.38,0-.71,0-1.04,0-4.17.07-8.34-.03-12.51-.03-1.35-.52-2.69-.75-4.05-.56-3.31-1.12-6.63-1.64-9.95-.22-1.45-.41-2.91-.48-4.37-.08-1.69,1.25-3,2.93-3.04,1.68-.04,2.95,1.2,3.16,2.88.38,3.17.85,6.34,1.3,9.5.2,1.41.48,2.81.74,4.31,5.74-1.92,11.38-3.81,17.1-5.72-1.05-1.56-2.06-3.05-3.08-4.55-4.54-6.7-9.16-13.35-13.55-20.14-1.14-1.76-2.7-1.94-4.34-2.31-3.11-.71-6.24-1.39-9.35-2.08-1.88-.42-3.76-.85-5.65-1.22-.21-.04-.58.16-.7.36-2.61,4.3-6.57,6.87-11.16,8.59-3.25,1.22-6.63,1.77-10.09,1.49-5.31-.43-10.17-2.18-14.43-5.43-1.73-1.32-3.25-2.85-4.32-4.78-.2-.36-.44-.41-.88-.31-4.52,1.04-9.06,2.04-13.59,3.05-1.26.28-2.54.51-3.77.88-.43.13-.84.54-1.1.93-2.77,4.05-5.51,8.12-8.27,12.19-2.98,4.4-5.98,8.8-9.05,13.33,5.71,1.91,11.36,3.81,17.11,5.74.36-2.01.77-3.94,1.04-5.89.44-3.22.8-6.46,1.18-9.69.17-1.45,1.79-2.75,3.25-2.6,1.6.16,3,1.68,2.83,3.23-.4,3.54-.8,7.09-1.35,10.6-.43,2.77-1.1,5.5-1.64,8.26-.1.48-.11.99-.11,1.49-.01,4.06,0,8.12-.01,12.18,0,.21-.03.43-.05.68h-5.91c-.02-.22-.07-.43-.07-.64,0-3.64-.02-7.28.01-10.93,0-.51-.17-.65-.6-.79-4.46-1.47-8.92-2.96-13.37-4.44-2.43-.8-4.87-1.55-7.28-2.41-.91-.32-1.72-.9-2.55-1.35,0,6.92,1.14,13.8,3.46,20.6-1.89,0-3.69.02-5.48-.03-.18,0-.47-.34-.52-.56-.74-3.13-1.54-6.26-2.15-9.42-.83-4.32-1-8.7-.88-13.09.15-5.33.89-10.58,2.26-15.72,2.32-8.69,6.16-16.65,11.56-23.86,6.97-9.31,15.72-16.47,26.22-21.46,5.34-2.54,10.94-4.33,16.77-5.41,6.2-1.15,12.41-1.5,18.7-.99,4.14.34,8.22,1,12.21,2.07,8.3,2.23,15.95,5.86,22.92,10.92,4.82,3.5,9.14,7.54,12.93,12.12,4.97,6.01,8.88,12.67,11.6,19.99,1.37,3.68,2.43,7.45,3.14,11.33.6,3.27.95,6.54,1.17,9.86.24,3.65-.02,7.25-.34,10.87-.4,4.48-1.69,9.9-2.75,13.35h-5.75c.79-3.36,1.68-6.73,2.35-10.14.68-3.42.91-6.89.86-10.43-2.48,1.83-5.44,2.24-8.17,3.23-3.09,1.13-6.24,2.11-9.37,3.15-1.85.61-3.7,1.24-5.55,1.82-.47.15-.63.32-.62.86.04,3.81.02,7.61.02,11.49ZM85.91,35.46c-.05-.07-.09-.15-.14-.22-.3-.02-.6-.04-.9-.08-2.38-.32-4.76-.66-7.14-.96-1.98-.25-3.96-.42-5.93-.69-1.61-.22-2.67-1.72-2.64-3.03.08-3.25.05-6.51,0-9.76-.01-.96.36-1.65,1.01-2.26.69-.65,1.56-.77,2.46-.84,2.11-.17,3.79-1.94,3.89-4.05.11-2.52-1.7-4.48-4.21-4.58-2.54-.1-4.54,1.77-4.55,4.34,0,1.57-1.3,3.05-3.08,3.01-1.7-.03-3.13-1.62-2.99-3.34.16-1.98.69-3.86,1.86-5.51.31-.44.64-.87,1.09-1.5-17.65,2.42-31.97,10.39-42.89,24.16-8.43,10.63-12.88,22.86-13.5,36.45.23-.15.38-.33.52-.52,3.09-4.55,6.18-9.1,9.26-13.65,3.58-5.29,7.17-10.57,10.74-15.86.73-1.08,1.66-1.7,2.99-1.99,7.12-1.54,14.21-3.19,21.31-4.8,1.7-.39,3.18.45,3.65,2.11.47,1.66,1.44,2.99,2.7,4.09,3.02,2.63,6.57,4.08,10.51,4.69,5.21.81,9.85-.58,14.1-3.54.68-.48,1.26-1.11,1.88-1.67ZM136.21,66.6c.07-.03.14-.06.21-.1-1.26-18.66-8.9-34.17-23.26-46.22-9.67-8.11-20.92-12.76-33.67-14.31.22.27.29.38.37.47,2.72,2.97,3.41,7.39,1.74,11.05-1.18,2.59-3.1,4.4-5.71,5.52-.29.12-.67.46-.69.72-.07,1.22-.05,2.44-.01,3.67,0,.19.26.5.43.53,2.3.31,4.61.58,6.91.86,2.47.3,4.96.51,7.41.95,3.53.63,7.03,1.42,10.54,2.17,3.9.84,7.79,1.78,11.71,2.52,1.8.34,3.04,1.16,4.01,2.69,1.67,2.64,3.49,5.18,5.25,7.77,3.71,5.47,7.41,10.93,11.12,16.4,1.2,1.77,2.42,3.54,3.63,5.31Z" fill="#a62242" stroke-width="0"/><path d="M111.63,127.42c-23.42,16.14-54.95,16.3-78.6.03.29-.03.48-.07.68-.07,3.23,0,6.45,0,9.68,0,.34,0,.72.08,1.03.23,4,1.93,8.15,3.49,12.48,4.45,2.87.64,5.79,1.06,8.7,1.47,4.12.58,8.26.51,12.38.14,2.93-.26,5.85-.77,8.72-1.37,4.7-.99,9.18-2.64,13.51-4.72.36-.17.8-.24,1.2-.24,3.14-.02,6.28-.01,9.43-.01.21,0,.42.04.8.08Z" fill="#a62242" stroke-width="0"/><path d="M125.41,115.48c.06-.46.16-.91.17-1.37.02-1.81.07-3.62-.02-5.42-.04-.73-.24-1.6-.68-2.14-1.79-2.19-4.04-3.5-7.01-3.25-1.15.1-1.73.65-2.02,1.72-.29,1.07-.61,2.14-1.03,3.16-.4.96-1.13,1.64-2.18,1.9-.28.07-.57.07-.8.1.23-.9.46-1.72.66-2.54.43-1.78,1.61-2.92,3.12-3.82.52-.31,1.03-.65,1.5-1.03,2.15-1.79,4.84-2.35,7.52-1.02.38.19.78.36,1.03.48.39-.86.69-1.65,1.09-2.38.56-1.02,1.2-2,1.78-3.01.15-.25.22-.55.27-.67-1.03-.24-1.98-.48-2.94-.69-.15-.03-.4.06-.49.18-.7.92-1.67.84-2.49.42-1.17-.6-2.26-1.38-3.33-2.17-.75-.56-1.4-1.25-2.09-1.89.82-1.01,2.4-1.33,3.62-.52,1.15.76,2.16,1.73,3.24,2.59.26.21.56.38,1,.68,0-.88,0-1.54,0-2.19,0-1.43.09-1.52,1.5-1.5.16,0,.33.02.38.02-.06.56-.14,1.09-.16,1.62-.03.81,0,1.61,0,2.42,0,.49.15.75.79.53v-2.79c0-1.84.05-1.89,1.89-1.76-.06.46-.26.97-.13,1.37.12.36.57.65.94.88,1.06.68,1.56,1.82,1.14,3.01-.25.69-.63,1.36-1.05,1.97-.76,1.1-1.6,2.13-2.38,3.21-.37.52-.68,1.09-1.01,1.64-.17-.09-.34-.18-.52-.28.31.33.59.68.92.97.83.72,1.18,1.59,1.16,2.71-.05,4.73-.03,9.45-.01,14.18,0,.73.13,1.46.22,2.3-.78,0-1.66.05-2.53-.02-.67-.05-.88-.6-.89-1.2-.01-1.22.03-2.45-.02-3.67-.03-.62-.21-1.23-.33-1.91-1.14.24-1.72-.39-2.29-1.06-1.17-1.38-2.34-2.75-3.53-4.1-.26-.29-.62-.49-1.16-.9-.16,1.11-.38,1.97-.39,2.83-.05,3.06-.04,6.12-.02,9.17,0,.25.26.49.4.74.13-.23.35-.46.36-.71.05-.83,0-1.67.02-2.5.03-1.22.6-1.76,1.83-1.78.57,0,1.15,0,1.54,0-.09.96-.21,1.85-.24,2.74-.04,1.54-.83,2.37-2.34,2.37-.86,0-1.72,0-2.58,0-1.23,0-2.2-.85-2.22-2.08-.03-2.19-.11-4.4.08-6.58.09-1.11.64-2.22,1.13-3.26.34-.72,1.01-1.14,1.9-1.13.27,0,.61-.21.81-.42.61-.62,1.28-.79,2-.31.4.27.79.63,1.07,1.03,1.04,1.51,2.03,3.05,3.05,4.58.14.22.3.42.46.63.1-.02.2-.04.29-.07Z" fill="#a62242" stroke-width="0"/><path d="M38.21,100.98c-.09.9-.22,1.68-.22,2.46-.03,5.53-.03,11.06-.06,16.59,0,1.27-.27,2.55-1.71,2.91-.79.2-1.8.27-2.49-.06-1.69-.81-3.25-1.89-4.86-2.87-.56-.35-1.09-.74-1.85-1.26,0,.71,0,1.24,0,1.77,0,1.76-.83,2.58-2.58,2.58-.81,0-1.61,0-2.42,0-1.28,0-2.2-.9-2.22-2.17,0-.78,0-1.56,0-2.34.01-1.67.96-2.61,2.64-2.62.41,0,.82,0,1.3,0,.02-.26.06-.5.06-.74,0-4.39,0-8.78,0-13.18,0-.14.04-.31-.02-.41-.1-.16-.26-.27-.4-.41-.13.14-.37.27-.37.42-.04.86-.01,1.72-.02,2.58-.01,1.42-.55,1.96-1.97,1.99-.55,0-1.09,0-1.45,0,.08-.95.2-1.8.22-2.66.04-1.62.96-2.58,2.59-2.61.69-.01,1.39-.01,2.08,0,1.57.03,2.54,1.01,2.55,2.57,0,4.28,0,8.56,0,12.84v1.04c.86-.66,1.49-.3,2.12.07,1.22.72,2.41,1.48,3.67,2.14.44.23,1.09.38,1.52.23.26-.09.41-.83.41-1.28.03-5.28.02-10.56.02-15.85,0-1.34.4-1.75,1.73-1.76.61,0,1.22,0,1.74,0ZM23.69,116.42c-.09-.01-.17-.02-.26-.04-.1.38-.29.75-.3,1.13-.04,1.63-.03,3.27-.02,4.91,0,.14.18.28.27.41.1-.16.29-.32.29-.49.02-1.69.01-3.38.01-5.07v-.85Z" fill="#a62242" stroke-width="0"/><path d="M59.15,123.1c-.8,0-1.68.05-2.55-.02-.68-.05-.87-.61-.88-1.21-.01-1.39,0-2.78,0-4.17,0-3.03.05-6.06-.03-9.09-.02-.72-.27-1.58-.72-2.13-1.76-2.13-3.97-3.47-6.87-3.17-2.1.22-3.15,1.42-3.15,3.54,0,4.09-.02,8.17-.03,12.26,0,.1.04.2.23.37.12-.23.28-.45.35-.69.72-2.59,1.42-5.19,2.13-7.79.17-.64.35-1.29,1.25-.67.19-.36.34-.65.51-.93.7-1.14,1.69-1.26,2.6-.29.65.7,1.23,1.45,2.55,1.41-.61.9-1.03,1.68-1.59,2.34-.85,1-1.66.95-2.5-.05-.44-.53-.87-1.08-1.31-1.61-.03-.03-.1-.02-.31-.05-.23.76-.46,1.54-.69,2.32-.81,2.77-1.58,5.55-2.43,8.32-.4,1.32-.46,1.3-1.8,1.3-.78,0-1.56,0-2.34,0-.05,0-.11-.01-.05,0,.07-.87.2-1.73.2-2.59.02-3.89.04-7.78,0-11.68-.01-1.18.26-2.23,1.18-2.89,2.21-1.57,4.43-3.14,6.79-4.45,1.61-.9,3.4-.53,5.05.29.39.19.79.37,1.19.56.24-1.92,1.51-3.23,2.34-4.76.75-1.39,1.33-2.8,1.1-4.42,1.56-.14,2.93,1.42,2.49,2.98-.21.76-.62,1.49-1.07,2.14-.81,1.19-1.7,2.33-2.6,3.47-.35.44-.81.79-1.31,1.26.25.27.52.65.87.93.93.75,1.2,1.74,1.19,2.88-.01,4.78-.01,9.56,0,14.34,0,.62.12,1.24.19,1.94Z" fill="#a62242" stroke-width="0"/><path d="M99.09,100.98c-.1.81-.24,1.48-.25,2.15-.03,5.61-.01,11.23-.05,16.84,0,1.29-.27,2.61-1.74,2.98-.78.2-1.82.27-2.49-.08-1.96-1.02-3.8-2.27-5.68-3.44-.28-.17-.55-.36-1.02-.67,0,.72,0,1.28,0,1.84,0,1.66-.84,2.5-2.48,2.5-.86,0-1.72,0-2.58,0-1.16,0-2.1-.91-2.13-2.08-.02-.81,0-1.61,0-2.42.01-1.69.95-2.62,2.63-2.62.41,0,.82,0,1.28,0v-14.65c-.57-.2-.75.03-.74.54.02.83.02,1.67,0,2.5-.03,1.27-.57,1.82-1.83,1.86-.58.02-1.16,0-1.56,0,.08-.97.19-1.88.22-2.79.04-1.29.7-2.24,1.97-2.38,1.09-.13,2.21-.13,3.3,0,1.23.14,1.94,1.15,1.94,2.51,0,4.25,0,8.5,0,12.76v1.05c1.06-.71,1.81-.07,2.57.37,1.13.65,2.23,1.35,3.36,2.01,1.14.67,1.83.28,1.83-1.01,0-5.34,0-10.67,0-16.01,0-1.35.39-1.75,1.72-1.76.61,0,1.22,0,1.75,0ZM84.53,116.31c-.21.18-.29.21-.29.24-.09,2.01-.18,4.02-.26,6.03,0,.08.17.16.26.25.09-.11.27-.23.27-.34.02-2.01.01-4.03.01-6.18Z" fill="#a62242" stroke-width="0"/><path d="M0,110.2c.24-.79.51-1.44.61-2.11.32-2.06,1.61-3.34,3.32-4.32.38-.22.78-.43,1.1-.72,2.27-2.07,5.19-2.72,8.14-1.11.26.14.54.26.85.41.2-1.81,1.36-3.07,2.17-4.49.84-1.47,1.49-2.96,1.26-4.7,1.5-.12,2.89,1.33,2.55,2.76-.19.81-.6,1.62-1.07,2.32-.81,1.22-1.73,2.38-2.64,3.53-.35.44-.82.78-1.34,1.26.34.34.71.73,1.11,1.1.65.6.93,1.32.93,2.22-.02,4.86-.02,9.73,0,14.59,0,.68.15,1.35.25,2.15-.83,0-1.78.1-2.68-.05-.3-.05-.67-.73-.7-1.14-.09-1.19-.02-2.39-.04-3.58,0-.44-.1-.88-.19-1.31-.09-.44-.29-.67-.84-.69-.41-.01-.89-.32-1.18-.64-.97-1.07-1.84-2.23-2.79-3.31-.63-.71-1.34-1.35-2.01-2.02-.11.05-.22.09-.33.14-.13.86-.36,1.71-.37,2.57-.06,3.11-.05,6.23-.04,9.34,0,.2.25.39.39.59.14-.2.38-.39.39-.6.04-.86,0-1.72.02-2.58.02-1.2.61-1.79,1.8-1.81.58-.01,1.16,0,1.58,0-.09.99-.2,1.94-.24,2.89-.05,1.36-.89,2.23-2.24,2.23-.89,0-1.78,0-2.67,0-1.24,0-2.23-.83-2.25-2.06-.04-2.25-.07-4.51.08-6.75.06-.96.49-1.93.92-2.82.4-.85,1.08-1.46,2.16-1.43.25,0,.56-.2.74-.4.65-.69,1.36-.82,2.14-.27.36.25.69.58.93.93,1.05,1.54,2.06,3.1,3.09,4.65.14.21.32.39.48.59.08-.02.15-.03.23-.05.07-.42.19-.84.2-1.26.02-1.97.03-3.95,0-5.92,0-.45-.13-.97-.39-1.33-1.83-2.52-4.21-3.96-7.45-3.68-1.05.09-1.61.61-1.86,1.58-.21.83-.4,1.68-.7,2.48-.45,1.23-1.12,2.31-2.5,2.69-.28.08-.59.09-.91.13Z" fill="#a62242" stroke-width="0"/><path d="M131.73,110.2c.24-.81.54-1.53.67-2.29.33-1.89,1.51-3.09,3.06-4.04.52-.31,1.04-.63,1.5-1.01,2.75-2.3,5.81-2.45,8.88-.38.57.39,1.14.81,1.63,1.29.79.77,1.27,1.67,1.26,2.87-.05,4.28-.02,8.56-.02,12.84,0,1.46-.23,1.68-1.69,1.69-.38,0-.77,0-1.11,0-.07.11-.12.16-.12.21q-.19,1.72-1.9,1.72c-2.72,0-5.45-.02-8.17.01-.77,0-1.09-.32-1.1-1.02-.05-2.92-.13-5.83-.1-8.75.02-1.48,1-2.3,2.48-2.31.79,0,1.59-.02,2.38-.03,1.33-.02,2.3.94,2.34,2.27.03.92.13,1.84.2,2.82-.59,0-1.41.09-2.2-.02-.86-.12-1.12-.84-1.14-1.62-.03-.83.02-1.67-.03-2.5-.02-.26-.25-.51-.38-.76-.15.24-.42.48-.42.72-.01,2.75.02,5.5.04,8.25,0,.51.27.78.77.78,2.27,0,4.55,0,6.9,0,.02-.33.05-.59.05-.86,0-3.89.02-7.78-.02-11.67,0-.55-.16-1.2-.48-1.63-1.83-2.39-4.17-3.76-7.31-3.48-1,.09-1.58.57-1.84,1.5-.23.83-.42,1.67-.7,2.48-.43,1.21-1.06,2.28-2.38,2.71-.35.12-.73.13-1.06.19Z" fill="#a62242" stroke-width="0"/><path d="M61.77,106.89c.59-1.48,1.69-2.71,3.33-3.48.39-.18.78-.42,1.09-.72,1.88-1.74,3.86-2.26,6.14-.99,1.01.57,2.07,1.06,3.14,1.53,1.4.62,2.65.29,3.74-.75.15-.14.32-.26.54-.43-.37,2.79-3.58,4.54-6.28,3.46-1.34-.54-2.6-1.27-3.94-1.79-.84-.33-1.76-.51-2.65-.59-.95-.09-1.4.4-1.7,1.55,3.03.68,5.99,1.57,8.8,2.9.57.27,1.13.61,1.65.97,1.46,1.01,2.28,2.32,2.22,4.2-.09,2.67-.02,5.34-.02,8,0,1.51-.85,2.34-2.37,2.34-.81,0-1.61,0-2.42,0-1.48,0-2.38-.92-2.43-2.43-.03-.87-.1-1.73-.16-2.67.54,0,1.25-.05,1.95.01.85.07,1.33.58,1.4,1.49.07.91,0,1.83.07,2.75.02.25.28.48.43.72.13-.24.36-.47.37-.71.03-2.72.04-5.45,0-8.17-.02-1.64-1.02-2.71-2.31-3.55-2.27-1.47-4.84-2.21-7.4-2.96-1.04-.3-2.12-.47-3.2-.7Z" fill="#a62242" stroke-width="0"/><path d="M102.32,100.98c.65,0,1.37-.02,2.09,0,.96.04,1.36.5,1.36,1.5,0,6.39,0,12.79,0,19.18,0,.19-.05.41.01.58.1.26.28.49.43.74.14-.25.39-.49.4-.75.05-.83,0-1.67.02-2.5.02-1.13.57-1.7,1.68-1.74.61-.02,1.22,0,1.69,0-.06.94-.14,1.85-.17,2.75-.05,1.48-.93,2.36-2.4,2.36-.86,0-1.72,0-2.58,0-1.33,0-2.23-.87-2.24-2.22-.01-2.39,0-4.78,0-7.17,0-3.5.01-7.01-.01-10.51,0-.7-.16-1.4-.26-2.23Z" fill="#a62242" stroke-width="0"/><path d="M66.53,92.04c1.45-1.26,2.98-1.24,4.6.05,1.15.92,2.27,1.86,3.47,2.72.45.32,1.05.42,1.59.62.12-.58.3-1.15.35-1.73.04-.55-.06-1.1-.1-1.66-.04-.62.23-.94.87-.93.52.01,1.05,0,1.44,0-.04.77,0,1.53-.15,2.24-.14.67-.3,1.57-.78,1.9-1.01.69-2.19,1.22-3.37,1.53-1.13.3-2.27-.19-3.21-.86-1.24-.88-2.41-1.87-3.59-2.83-.39-.31-.73-.67-1.13-1.05Z" fill="#a62242" stroke-width="0"/><path d="M99.63,91.11c-.03.85-.07,1.6-.07,2.36,0,.86-.23,1.74-1.05,2.01-.88.28-1.59.81-2.4,1.16-1.06.45-2.13.18-3.14-.31-2.11-1.02-3.74-2.66-5.43-4.22.7-1.04,2.57-1.3,3.55-.64.85.57,1.62,1.26,2.46,1.85.97.69,1.95,1.36,2.96,1.99.56.35.9.1.91-.55.01-.86.02-1.72-.03-2.58-.04-.79.24-1.15,1.05-1.08.44.04.88,0,1.19,0Z" fill="#a62242" stroke-width="0"/><path d="M120.1,87.3v-5.88c-.52-.2-.8-.13-.76.41,0,.11,0,.22,0,.33-.05,1.92-.59,2.36-2.34,2.09.21-.68.47-1.37.63-2.08.15-.67.49-1.04,1.17-1.06.53-.02,1.05,0,1.58,0,1.17,0,1.83.63,1.87,1.83.03.8.03,1.61,0,2.41-.03.6.22.76.78.75,1.59-.01,2.01-.3,2.35-1.84.12-.56.19-1.15.2-1.73.03-1.87.66-2.48,2.45-2.41-.08.86-.18,1.71-.23,2.57-.11,1.76-.95,2.81-2.65,3.3-.31.09-.61.25-.89.41-1.26.75-2.65.84-4.15.88Z" fill="#a62242" stroke-width="0"/><path d="M69.72,96.76c-.67.6-1.47.58-2.26.36-.53-.15-1.02-.43-1.55-.6-.69-.21-1.4-.37-2.21-.58.19-1.45,1.17-2.56,2.38-3.57-.66.64-.22,1.02.23,1.46.54.52.99,1.13,1.55,1.62.55.48,1.2.85,1.86,1.31Z" fill="#a62242" stroke-width="0"/><path d="M120.61,96.75c-.63.6-1.42.6-2.21.38-.53-.15-1.02-.44-1.54-.61-.69-.22-1.39-.38-2.21-.59.14-1.43,1.14-2.5,2.29-3.51-.5.6-.19.98.26,1.39.55.51.99,1.13,1.55,1.62.55.48,1.19.86,1.86,1.33Z" fill="#a62242" stroke-width="0"/><path d="M90.78,96.69c-.82.64-1.65.69-2.5.39-.63-.22-1.22-.55-1.85-.75-.54-.17-1.11-.21-1.78-.32.12-1.26.82-2.28,1.86-3.12.64,1.16,2.98,3.27,4.27,3.8Z" fill="#a62242" stroke-width="0"/></svg>