<?xml version="1.0" standalone="no"?>
<!DOCTYPE svg PUBLIC "-//W3C//DTD SVG 20010904//EN"
 "http://www.w3.org/TR/2001/REC-SVG-20010904/DTD/svg10.dtd">
<svg version="1.0" xmlns="http://www.w3.org/2000/svg"
 width="260.000000pt" height="260.000000pt" viewBox="0 0 260.000000 260.000000"
 preserveAspectRatio="xMidYMid meet">
<metadata>
Created by potrace 1.14, written by Peter Selinger 2001-2017
</metadata>
<g transform="translate(0.000000,260.000000) scale(0.100000,-0.100000)"
fill="#000000" stroke="none">
<path d="M1028 2500 c-422 -89 -768 -382 -908 -769 -63 -173 -74 -239 -74
-431 1 -151 4 -188 25 -270 l24 -95 57 -3 57 -3 -15 43 c-36 102 -58 315 -31
305 6 -3 96 -34 199 -69 l188 -63 0 -107 0 -108 60 0 60 0 0 128 c0 84 7 160
19 227 29 146 36 246 19 266 -21 27 -53 32 -77 12 -17 -15 -24 -38 -36 -133
-19 -149 -25 -172 -38 -167 -7 2 -70 23 -142 47 -72 23 -131 44 -133 45 -4 3
277 416 298 439 12 13 68 30 171 53 l153 34 33 -39 c71 -85 202 -143 328 -144
126 0 226 41 311 127 l52 54 153 -34 c84 -19 159 -40 166 -47 7 -7 77 -109
156 -227 l144 -214 -140 -49 c-93 -32 -143 -45 -147 -38 -4 6 -14 63 -23 127
-11 75 -23 123 -34 135 -35 39 -93 9 -93 -48 0 -16 10 -81 21 -144 13 -68 23
-176 26 -263 l5 -147 54 0 53 0 3 107 3 106 185 63 c102 34 194 65 204 70 18
7 19 3 12 -72 -4 -43 -17 -123 -30 -177 l-23 -98 55 3 56 3 18 70 c67 263 37
564 -82 812 -66 140 -138 241 -245 348 -174 175 -380 285 -624 335 -131 26
-348 27 -473 0z m76 -115 c-24 -37 -34 -93 -22 -121 22 -48 92 -39 104 14 10
46 12 50 38 68 48 31 106 -2 106 -60 0 -38 -22 -61 -68 -71 -51 -11 -61 -36
-57 -145 1 -52 6 -103 10 -112 9 -22 18 -25 154 -42 62 -9 116 -18 119 -20 9
-10 -91 -65 -140 -76 -131 -32 -297 31 -348 130 -11 22 -28 43 -38 49 -12 6
-77 -5 -212 -35 -107 -24 -205 -48 -216 -53 -12 -5 -62 -69 -111 -143 -50 -73
-132 -194 -183 -268 l-92 -135 6 65 c16 160 82 346 171 481 69 106 250 282
351 342 103 61 204 102 324 132 123 31 124 31 104 0z m451 -7 c175 -46 333
-134 473 -263 183 -169 303 -401 342 -658 6 -43 10 -81 8 -83 -3 -2 -85 115
-183 260 -98 145 -187 269 -199 275 -36 18 -395 92 -536 109 l-135 17 -3 36
c-3 32 1 39 32 57 84 50 116 164 68 245 l-22 38 38 -6 c20 -4 73 -16 117 -27z"/>
<path d="M2195 1095 c-3 -14 -7 -36 -10 -50 -4 -17 -12 -25 -25 -25 -16 0 -20
7 -20 33 0 38 -15 57 -46 57 -24 0 -38 -14 -49 -48 -6 -20 -4 -23 11 -20 10 2
24 14 32 28 12 23 12 21 6 -22 -8 -57 6 -67 66 -49 46 14 80 53 80 92 0 38
-37 41 -45 4z"/>
<path d="M1170 920 c-13 -8 -10 -14 15 -35 69 -58 92 -67 130 -55 47 16 65 35
65 71 0 26 -3 30 -22 27 -18 -2 -24 -11 -26 -35 -2 -18 -7 -33 -11 -33 -5 0
-28 16 -52 35 -45 35 -72 42 -99 25z"/>
<path d="M1535 919 c-17 -26 99 -105 139 -95 36 9 64 38 71 74 6 29 5 32 -19
32 -23 0 -26 -4 -26 -35 0 -19 -4 -35 -8 -35 -5 0 -31 16 -58 35 -49 35 -87
44 -99 24z"/>
<path d="M2054 919 c-7 -12 32 -49 80 -75 20 -11 35 -13 50 -7 11 5 31 7 43 5
l22 -3 -27 -49 c-22 -41 -30 -48 -47 -42 -43 15 -90 6 -138 -26 -51 -36 -71
-61 -81 -104 -5 -21 -3 -28 8 -28 20 0 53 44 61 80 11 52 79 53 136 2 29 -26
30 -30 27 -97 l-3 -70 -33 52 c-39 61 -51 67 -92 47 -43 -22 -60 -61 -60 -143
0 -80 13 -101 64 -101 43 0 62 17 69 63 6 38 6 38 -26 35 -29 -3 -33 -7 -38
-43 -4 -28 -6 -15 -7 45 -1 126 4 132 62 71 26 -28 52 -51 57 -51 5 0 9 -24 9
-54 0 -56 8 -66 51 -66 18 0 19 9 19 151 0 122 -3 156 -16 179 -17 27 -16 29
25 85 46 65 50 84 21 110 -11 10 -20 24 -20 30 0 8 -15 13 -39 13 -37 1 -40
-1 -43 -29 l-3 -30 -35 30 c-35 31 -83 40 -96 20z m173 -56 c-3 -10 -5 -2 -5
17 0 19 2 27 5 18 2 -10 2 -26 0 -35z"/>
<path d="M300 874 c0 -15 -13 -50 -30 -79 l-30 -52 -38 10 c-33 9 -46 7 -83
-11 -60 -29 -105 -75 -113 -114 -7 -37 -1 -46 21 -32 19 12 27 24 47 77 13 32
19 37 48 37 38 0 92 -30 108 -60 6 -11 10 -48 8 -83 l-3 -62 -35 52 c-19 29
-41 55 -47 57 -7 3 -28 -1 -46 -9 -44 -18 -59 -56 -61 -146 -1 -80 12 -99 70
-99 42 0 64 23 64 66 0 33 -2 35 -27 32 -24 -3 -29 -9 -34 -43 -4 -26 -7 -4
-8 63 0 56 2 102 6 102 4 0 33 -27 65 -61 53 -55 58 -64 58 -105 0 -38 3 -44
25 -50 14 -4 28 -4 31 -1 3 3 5 77 4 164 -1 128 -4 161 -17 175 -14 16 -12 20
20 59 51 59 62 94 37 119 -27 27 -40 25 -40 -6z"/>
<path d="M1036 893 c-3 -4 -6 -15 -6 -26 0 -11 -12 -42 -27 -71 -15 -28 -28
-52 -28 -53 -1 -1 -18 3 -39 9 -35 11 -43 9 -90 -15 -28 -15 -66 -40 -84 -55
l-32 -27 -2 -145 -2 -145 34 0 35 0 31 103 c30 101 31 102 49 82 24 -27 41
-25 61 6 17 25 17 26 -12 49 -35 29 -38 29 -58 10 -8 -8 -19 -15 -24 -15 -5 0
-19 -35 -30 -77 l-20 -78 -1 117 c-1 110 0 118 21 132 28 20 61 20 98 1 54
-28 60 -47 60 -192 l0 -133 25 -6 c14 -4 29 -4 32 0 3 3 5 76 5 162 -1 126 -4
160 -16 172 -14 14 -12 20 18 61 50 70 58 88 47 110 -11 20 -35 33 -45 24z"/>
<path d="M1126 878 c-22 -31 -21 -34 15 -47 37 -13 79 -15 78 -3 0 4 -18 22
-39 40 l-38 33 -16 -23z"/>
<path d="M1490 875 c-18 -33 -7 -43 53 -51 56 -8 60 3 12 34 -19 12 -35 27
-35 32 0 19 -17 10 -30 -15z"/>
<path d="M2016 878 c-22 -31 -21 -34 15 -47 31 -11 79 -15 79 -7 0 5 -71 76
-75 76 -2 0 -11 -10 -19 -22z"/>
<path d="M357 742 c-10 -10 -17 -33 -17 -51 0 -29 3 -32 28 -29 23 3 28 9 33
43 4 23 7 -10 7 -80 l2 -120 -33 -15 c-27 -13 -33 -21 -35 -53 -4 -47 19 -77
59 -77 42 0 60 10 73 41 l12 28 46 -29 c67 -42 92 -46 117 -21 20 20 21 32 21
201 l0 180 -23 0 c-43 0 -47 -15 -47 -177 0 -95 -4 -153 -10 -153 -5 0 -32 12
-60 28 l-50 27 0 115 c0 138 -10 160 -69 160 -24 0 -44 -7 -54 -18z"/>
<path d="M1159 732 c-52 -34 -83 -67 -75 -80 3 -5 23 -12 43 -16 52 -8 159
-60 166 -81 4 -9 6 -53 6 -98 -1 -61 -3 -72 -8 -42 -5 34 -10 40 -33 43 -26 3
-28 1 -28 -32 0 -40 28 -66 70 -66 51 0 59 17 61 120 2 59 -2 104 -10 117 -14
28 -55 50 -144 78 -37 12 -64 25 -60 28 12 13 54 7 93 -13 55 -28 105 -26 135
5 34 33 32 49 -3 31 -26 -14 -33 -13 -81 10 -67 31 -77 30 -132 -4z"/>
<path d="M1422 748 c-6 -7 -13 -30 -17 -50 -7 -37 -7 -38 24 -38 31 0 32 0 44
65 2 11 4 -34 3 -100 l-1 -120 -30 -10 c-27 -9 -30 -15 -33 -60 -4 -57 12 -75
64 -75 37 0 64 22 64 51 0 10 2 19 4 19 3 0 31 -16 63 -35 67 -40 73 -41 102
-17 19 16 21 29 23 200 l3 183 -30 -3 -30 -3 -3 -162 c-3 -183 -2 -182 -72
-138 -22 14 -44 25 -50 25 -6 0 -10 46 -10 124 0 100 -3 128 -16 140 -19 19
-87 21 -102 4z"/>
<path d="M1790 576 c0 -205 3 -216 64 -216 43 0 62 17 70 63 l7 38 -33 -3
c-30 -3 -33 -6 -38 -43 -3 -22 -7 46 -10 150 l-5 190 -27 3 -28 3 0 -185z"/>
<path d="M2440 753 c-30 -12 -101 -65 -114 -86 -22 -35 -29 -77 -13 -77 20 0
45 31 60 76 10 28 20 40 36 42 35 5 66 -5 100 -34 l31 -26 0 -119 0 -119 -65
0 -65 0 1 83 c1 60 3 71 8 42 5 -34 10 -40 34 -43 25 -3 27 -1 27 31 0 42 -18
59 -65 59 -60 0 -66 -12 -63 -121 l3 -96 93 -3 c87 -3 94 -1 99 18 3 13 14 20
29 20 l24 0 0 143 c0 143 0 143 -27 169 -42 41 -93 56 -133 41z"/>
<path d="M580 293 c0 -22 194 -121 306 -156 151 -48 243 -60 419 -54 176 5
285 27 425 86 85 35 220 111 220 123 0 16 -189 9 -222 -8 -18 -9 -63 -27 -102
-40 -246 -84 -543 -76 -784 21 -75 31 -97 35 -174 35 -48 0 -88 -3 -88 -7z"/>
</g>
</svg>
